<svg xmlns="http://www.w3.org/2000/svg" xmlns:xlink="http://www.w3.org/1999/xlink" width="48" height="48" version="1.1"><defs><linearGradient id="color-1" x1="8.443" x2="73.334" y1="10.316" y2="71.461" gradientUnits="userSpaceOnUse"><stop offset="0" stop-color="#000" stop-opacity=".3"/><stop offset="1" stop-color="#000" stop-opacity="0"/></linearGradient><filter id="dropshadow-base"><feColorMatrix type="matrix" values="0 0 0 0 0 0 0 0 0 0 0 0 0 0 0 0 0 0 .8 0"/><feOffset dx="0" dy="1"/><feGaussianBlur stdDeviation="1"/><feComposite in="SourceGraphic"/></filter><filter id="dropshadow-banner" width="120%" height="130%" x="-10%" y="-10%"><feColorMatrix type="matrix" values="0 0 0 0 0 0 0 0 0 0 0 0 0 0 0 0 0 0 .4 0"/><feOffset dx="0" dy="1"/><feGaussianBlur stdDeviation=".5"/><feComposite in="SourceGraphic"/></filter></defs><g fill="none" fill-rule="nonzero" stroke="none" stroke-dashoffset="0" stroke-linecap="butt" stroke-linejoin="miter" stroke-miterlimit="10" stroke-width="none" font-family="none" font-size="none" font-weight="none" text-anchor="none" style="mix-blend-mode:normal"><path id="base 1 5" fill="#00796b" stroke-width="1" d="M2,24c0,-12.15026 9.84974,-22 22,-22c12.15026,0 22,9.84974 22,22c0,12.15026 -9.84974,22 -22,22c-12.15026,0 -22,-9.84974 -22,-22z"/><path fill="url(#color-1)" stroke-width="1" d="M10.25228,32.78646c-0.00374,-0.00374 -0.00739,-0.00763 -0.01094,-0.0117c-0.09077,-0.09776 -0.08379,-0.25487 0.02095,-0.34216c0.04876,-0.04428 0.09766,-0.08769 0.14668,-0.13025l-1.3765,-1.3765c-0.01926,-0.01926 -0.03564,-0.04204 -0.04803,-0.06787c-0.06285,-0.11871 -0.01047,-0.26884 0.11173,-0.32819c0.27522,-0.13082 0.55089,-0.25336 0.82714,-0.36683l-1.40862,-1.40862c-0.02707,-0.02707 -0.04837,-0.06073 -0.06092,-0.0994c-0.03841,-0.12918 0.03142,-0.26884 0.16409,-0.30375c0.71922,-0.22344 1.42447,-0.37707 2.10878,-0.47482c-0.54466,-1.91327 -0.50973,-4.21058 0.45388,-7.03859c-2.05292,-3.68688 -1.30227,-9.41971 -1.26736,-9.67109c0.04539,-0.33169 0.25487,-0.61099 0.55164,-0.75065c0.29676,-0.14664 0.64939,-0.1222 0.93569,0.05236l6.45902,3.98366c1.74569,-0.79254 3.92081,-1.24642 6.0645,-1.24642c2.11925,0 4.4061,0.46784 6.11688,1.24292l6.01562,-3.96969c0.27931,-0.18155 0.63543,-0.21646 0.94266,-0.0768c0.10797,0.04964 0.20491,0.11781 0.28707,0.19996l8.06227,8.06227c0.42558,1.70832 0.65148,3.49562 0.65148,5.33569c0,12.15026 -9.84974,22 -22,22c-0.18075,0 -0.36099,-0.00218 -0.54069,-0.00651z"/><path fill="none" stroke-width="0" d="M27.30708,31.88444c0.00313,-0.00344 0.00631,-0.00682 0.00952,-0.01014c-0.351,0.2521 -0.49702,0.3334 -0.72525,0.41165c-0.34914,0.11871 -0.72271,0.15362 -1.02995,0.09776c-0.50974,-0.09776 -0.98806,-0.43642 -1.11025,-0.78905l-0.05586,-0.16759l0.17457,-0.09427c0.44689,-0.23392 0.98457,-0.7681 1.18706,-1.1731c0.22694,-0.4434 0.03491,-0.99853 -0.43293,-1.23245c-0.29159,-0.14408 -0.61015,-0.19041 -1.39948,-0.19198c1.20933,0.00318 1.90922,0.18972 1.90922,1.12418c0,0.37008 -0.73319,1.2534 -1.47685,1.55017c0.00349,0.01047 0.01397,0.01397 0.02095,0.02444c0.12918,0.71224 1.0125,1.07883 1.74568,0.99155c0.7681,-0.09776 1.16961,-0.51323 1.18706,-0.53069zM27.99488,31.86c0.19901,0.18155 0.20948,0.4853 0.03491,0.68431c-0.02793,0.02793 -0.64241,0.69827 -1.78758,0.84491c-0.11172,0.01397 -0.22694,0.02095 -0.34914,0.02095c-0.74017,0 -1.50827,-0.31422 -1.99706,-0.87284c-0.48181,0.55862 -1.23245,0.87284 -1.97611,0.87284c-0.1222,0 -0.2409,-0.00698 -0.35612,-0.02095c-1.14168,-0.14664 -1.75616,-0.81698 -1.7806,-0.84491c-0.18155,-0.19901 -0.16409,-0.51323 0.03491,-0.6878c0.03085,-0.02819 0.06412,-0.05168 0.09902,-0.07053c-0.22372,0.10689 -0.33572,0.36423 -0.23169,0.62565c0.13965,0.34914 0.89379,0.80301 1.60603,0.96013c0.39802,0.08379 1.09978,0.05237 1.48732,-0.06983l-0.00349,-0.00349c0.32121,-0.10474 0.80301,-0.39802 1.00202,-0.60401l0.11522,-0.11871l0.20948,0.18853c0.27233,0.2444 0.75064,0.48181 1.16612,0.58655c0.26884,0.06983 0.40151,0.07681 0.75414,0.05935c0.51323,-0.02095 0.77857,-0.08728 1.23943,-0.31422c0.39103,-0.18504 0.71922,-0.42944 0.83095,-0.61448c0.25053,-0.40711 -0.16746,-0.8704 -0.56364,-0.7348c0.15877,-0.04552 0.33726,-0.0084 0.46588,0.11333zM20.50939,31.89143c0.01397,0.01397 0.40849,0.42595 1.17659,0.53069c0.71573,0.09078 1.58857,-0.25836 1.72823,-0.99155c0.00349,-0.01397 0.01746,-0.02095 0.02444,-0.03491c-0.71166,-0.26729 -1.42651,-1.02696 -1.48672,-1.47738c0.00762,0.09715 0.03339,0.16411 0.09367,0.28682c0.18504,0.37707 0.73319,0.8903 1.20452,1.12771c0.15711,0.0803 0.15711,0.08728 0.11522,0.20948c-0.11522,0.33866 -0.41896,0.62146 -0.83793,0.77508c-0.26534,0.09776 -0.8484,0.11172 -1.14168,0.03491c-0.27233,-0.0803 -0.61448,-0.25836 -0.78556,-0.40849c-0.14587,-0.13506 -0.23322,-0.18653 -0.3429,-0.2029c0.09389,0.02215 0.1823,0.07266 0.25212,0.15053zM23.89602,31.03953c0.59004,0 1.40702,-0.94267 1.45241,-1.18706c-0.00349,-0.32819 -0.00349,-0.62146 -1.4559,-0.62146c-1.4559,0 -1.4559,0.1606 -1.4559,0.63543c0.01047,0.22694 0.81698,1.16961 1.45241,1.16961zM27.49213,29.86643c0,-0.14315 0.11522,-0.25836 0.25487,-0.25836c0.14315,0 0.25487,0.11871 0.25487,0.25836c0,0.13503 -0.11673,0.25285 -0.25487,0.25487c-0.13616,0 -0.25487,-0.11522 -0.25487,-0.25487zM27.7435,30.1248l0.00349,-0.00003c-0.00116,0.00002 -0.00233,0.00003 -0.00349,0.00003zM26.84622,31.10936c0,-0.13965 0.11522,-0.25487 0.25487,-0.25487c0.13923,0 0.25417,0.11105 0.25487,0.25011c0,-0.00074 0,-0.00148 0,-0.00222c0,-0.11172 -0.02444,-0.16759 -0.08728,-0.20948c-0.18504,-0.13965 -0.42595,-0.01746 -0.42595,0.20948c0,0.08969 0.03937,0.1625 0.09848,0.20896c-0.05777,-0.04887 -0.09499,-0.1226 -0.09499,-0.20197zM27.10109,31.36423v0.00319c0.057,0.00077 0.11661,-0.01651 0.17108,-0.05556h-0.00698c0.06797,-0.04418 0.08962,-0.10159 0.09073,-0.2012c-0.0026,0.13757 -0.11677,0.25357 -0.25482,0.25357zM28.25674,31.10936c0,-0.13965 0.11522,-0.25487 0.26185,-0.25487c0.13267,0 0.2444,0.11172 0.2444,0.25138c0,0.09352 -0.0501,0.17765 -0.12305,0.22303c0.02125,-0.01261 0.04097,-0.02686 0.05671,-0.04147c0.17457,-0.16409 0.06284,-0.45388 -0.17457,-0.45388c-0.12918,0 -0.27931,0.13965 -0.27931,0.26185c0,0.12569 0.13965,0.27931 0.26534,0.27931c0.03001,0 0.07148,-0.01376 0.11062,-0.03404c-0.03073,0.01509 -0.06469,0.02357 -0.10015,0.02357c-0.14315,0 -0.25836,-0.1222 -0.25836,-0.26185zM20.13233,29.60458c0.13965,0 0.25487,0.11871 0.25487,0.25836c0,0.13616 -0.11522,0.25836 -0.25487,0.25836c-0.06917,0 -0.13234,-0.02826 -0.17849,-0.07376c0.00014,0.00015 0.00029,0.00029 0.00043,0.00044c0.11522,0.11522 0.23741,0.11871 0.35612,0.01047v-0.00349c0.17457,-0.16409 0.06284,-0.45388 -0.18155,-0.45388c-0.2307,0 -0.33696,0.23955 -0.20131,0.41617c-0.03141,-0.04237 -0.05007,-0.09462 -0.05007,-0.15082c0,-0.14315 0.11522,-0.25836 0.25487,-0.25836zM19.7378,31.10936c0,0.13396 -0.1028,0.24865 -0.23444,0.25778c0.0522,-0.00246 0.10652,-0.01997 0.15763,-0.05528h-0.00698c0.06983,-0.04539 0.08728,-0.10474 0.08728,-0.20948c0,-0.11172 -0.02095,-0.16759 -0.08379,-0.20948c-0.18853,-0.13965 -0.42595,-0.01746 -0.42595,0.20948c0,0.00062 0,0.00124 0.00001,0.00185c0.00092,-0.13892 0.11925,-0.25323 0.25836,-0.25323c0.13616,0 0.25138,0.11172 0.25138,0.25138zM20.90741,31.37121c-0.04652,0 -0.09072,-0.01356 -0.12897,-0.03681c0.03766,0.02495 0.07878,0.0403 0.1185,0.0403c0.02688,0 0.06295,-0.01104 0.09784,-0.02792c-0.02829,0.01124 -0.05893,0.01744 -0.09086,0.01744zM20.64905,31.10936c0,-0.13965 0.11871,-0.25487 0.25836,-0.25487c0.13616,0 0.25138,0.11172 0.25138,0.25138c0,0.06983 -0.0288,0.13442 -0.07506,0.18155h0.00175c0.17457,-0.16409 0.06284,-0.45388 -0.17457,-0.45388c-0.12918,0 -0.27931,0.13965 -0.27931,0.26185c0,0.05672 0.02844,0.11912 0.07119,0.17053c-0.03354,-0.04432 -0.05374,-0.09895 -0.05374,-0.15656zM20.19168,26.19003c-0.02095,0 -0.49927,0.17457 -1.16262,0.17457c-0.74715,0 -1.41051,-0.20599 -1.96913,-0.61448c-1.22198,-0.89379 -1.18706,-2.63249 -1.18706,-2.7093c0.00698,-0.08728 0.05935,-0.17457 0.14664,-0.20948c0.02444,-0.01047 0.65289,-0.29677 1.4559,-0.29677c0.65638,0 1.24991,0.19203 1.7387,0.56909c0.0271,0.02077 0.05358,0.04189 0.07944,0.06334c-0.16718,-0.15537 -0.2891,-0.22969 -0.51935,-0.34614c-0.43642,-0.20948 -0.82047,-0.29327 -1.31275,-0.29327c-0.55862,0 -1.35465,0.18504 -1.52922,0.34914c-0.12569,0.1222 -0.0803,0.75414 0.09776,1.37211c0.34914,1.19405 1.23943,1.92025 2.60456,2.11926c0.23043,0.03491 0.9706,-0.01397 1.26737,-0.08728l0.00698,0.00349c0.27031,-0.06758 0.38327,-0.09672 0.42555,-0.23466c-0.02638,0.0633 -0.07779,0.11441 -0.14275,0.1404zM18.8091,24.51068c0.33866,0 0.61797,-0.27582 0.61797,-0.6075c0,-0.33866 -0.27582,-0.61797 -0.61448,-0.61797c-0.33517,0 -0.61448,0.27233 -0.61448,0.62146c0,0.33168 0.27582,0.61099 0.61797,0.61099zM32.21594,22.81038c0.08728,0.04539 0.14664,0.1222 0.14664,0.21996c0,0.07332 0.03491,1.80853 -1.18706,2.70232c-0.43854,0.31869 -0.93657,0.51625 -1.48914,0.58771c0.2036,-0.01477 0.33827,-0.03875 0.48362,-0.07797h0.00349c0.58655,-0.17457 1.15215,-0.53767 1.49081,-0.96013c0.37358,-0.47133 0.6459,-1.22198 0.69827,-1.9412c0.03491,-0.43991 0,-0.50276 -0.33866,-0.61448c-1.35465,-0.43293 -2.53473,-0.2025 -3.34473,0.66336c-0.5237,0.5656 -0.82047,1.414 -0.82047,2.33922c0,0.15711 0.01746,0.31422 0.03491,0.35961c0.0419,0.06983 0.30724,0.16759 0.65289,0.23043c0.05517,0.00985 0.1882,0.01637 0.35137,0.01892c-0.49676,-0.03997 -0.83661,-0.16207 -0.85413,-0.16207c-0.09078,-0.03491 -0.15362,-0.11871 -0.1606,-0.20948c-0.01047,-0.07332 -0.15711,-1.87835 1.14168,-2.87689c0.49228,-0.37707 1.07185,-0.5656 1.73521,-0.5656c0.80301,0 1.43146,0.2828 1.4559,0.29327zM31.49672,24.51068c0.33866,0 0.61797,-0.27582 0.61797,-0.6075c0,-0.33866 -0.27233,-0.61797 -0.61448,-0.61797c-0.33866,0 -0.61797,0.27233 -0.61797,0.62146c0,0.33168 0.27931,0.61099 0.61797,0.61099zM39.38721,28.3442c0.12569,0.03841 0.19552,0.17457 0.1606,0.30375c-0.0419,0.12569 -0.17806,0.2025 -0.30375,0.1606c-0.76112,-0.23741 -1.50827,-0.38754 -2.24146,-0.48181c-0.15711,0.44689 -0.34914,0.86935 -0.5656,1.27435c0.83095,0.22694 1.65491,0.53069 2.47189,0.92521c0.11871,0.05935 0.17108,0.20599 0.11172,0.3247c-0.0419,0.09078 -0.12918,0.13965 -0.21646,0.13965c-0.03491,0 -0.07681,-0.00698 -0.10474,-0.02444c-0.83793,-0.39802 -1.66887,-0.70526 -2.51378,-0.92172c-0.19552,0.3247 -0.40849,0.63892 -0.63892,0.93569c0.73319,0.32819 1.48034,0.79952 2.19956,1.44543c0.10125,0.09427 0.10823,0.2444 0.01746,0.34914c-0.04888,0.05586 -0.11172,0.07681 -0.18155,0.07681c-0.05935,0 -0.11522,-0.02095 -0.16409,-0.06284c-0.72271,-0.64939 -1.4559,-1.10327 -2.18909,-1.41749c-1.37909,1.6584 -3.15969,2.90482 -4.63653,3.94524c-2.05292,1.43844 -4.67145,2.36715 -6.66851,2.36715c-2.53124,0 -5.17071,-1.47685 -6.51838,-2.34969c-1.71077,-1.11375 -3.42852,-2.36016 -4.74127,-3.91731c-0.69129,0.31422 -1.38956,0.75763 -2.07736,1.37909c-0.04888,0.0419 -0.10474,0.05935 -0.16409,0.05935c-0.06634,0 -0.13267,-0.02444 -0.18155,-0.0803c-0.09078,-0.09776 -0.08379,-0.25487 0.02095,-0.34215c0.68431,-0.62146 1.39655,-1.07185 2.09482,-1.39655c-0.23741,-0.30724 -0.45388,-0.62495 -0.66336,-0.95663c-0.79952,0.21297 -1.59555,0.50625 -2.3846,0.8903c-0.03491,0.01746 -0.06983,0.02793 -0.10474,0.02793c-0.09078,0 -0.17806,-0.05237 -0.21996,-0.13965c-0.06284,-0.11871 -0.01047,-0.26884 0.11172,-0.32819c0.77857,-0.37008 1.56064,-0.67383 2.34969,-0.89379c-0.21646,-0.405 -0.40849,-0.83095 -0.5656,-1.28482c-0.6878,0.09427 -1.40004,0.2409 -2.11926,0.46435c-0.12569,0.0419 -0.26534,-0.03142 -0.30724,-0.1606c-0.03841,-0.12918 0.03142,-0.26884 0.16409,-0.30375c0.71922,-0.22345 1.42448,-0.37707 2.10878,-0.47483c-0.54465,-1.91327 -0.50974,-4.21059 0.45388,-7.03859c-2.05292,-3.68688 -1.30228,-9.41971 -1.26737,-9.67108c0.04539,-0.33168 0.25487,-0.61099 0.55164,-0.75064c0.29677,-0.14664 0.64939,-0.1222 0.93569,0.05237l6.45903,3.98365c1.74568,-0.79254 3.9208,-1.24642 6.0645,-1.24642c2.11926,0 4.4061,0.46784 6.11687,1.24293l6.01562,-3.96968c0.27931,-0.18155 0.63543,-0.21646 0.94267,-0.07681c0.30375,0.13965 0.52021,0.42595 0.5656,0.75763c0.03491,0.26534 0.83095,6.32286 -1.0125,9.65712c1.09629,2.82102 1.14517,5.11834 0.59353,7.03859c0.7262,0.09427 1.47685,0.25138 2.23447,0.48879zM35.1452,19.19333c0.67732,-1.77711 0.73319,-4.35722 0.62845,-6.1867l-5.08608,3.35487c0.32001,-0.19758 0.93932,-0.59576 1.61217,-1.04009l2.5487,-1.68633l0.87284,-0.56909l0.03491,0.1222c0.05237,0.19901 0,2.82801 -0.06983,3.42154c-0.06983,0.62845 -0.19203,1.29879 -0.30026,1.72124c-0.07681,0.31422 -0.21996,0.76112 -0.2444,0.78905c-0.01047,0 -0.12569,-0.09078 -0.25836,-0.20948c-0.31422,-0.29327 -0.50625,-0.43293 -0.74715,-0.54814c-0.23741,-0.11172 -0.30724,-0.11522 -0.405,-0.01397c-0.22694,0.22345 0.05237,1.26737 0.67732,2.5068c0.13267,0.26534 0.29677,0.62845 0.35961,0.81349c0.1222,0.35612 0.31422,0.93219 0.31422,0.97758c0,0.01047 -0.19901,-0.07681 -0.43642,-0.19901c-0.46435,-0.23392 -0.83793,-0.34914 -1.1312,-0.34914c-0.13965,0 -0.19552,0.02095 -0.27233,0.09776c-0.09078,0.09427 -0.09776,0.12569 -0.0803,0.31422c0.03491,0.40151 0.49577,1.22896 1.39655,2.52775c0.22694,0.32819 0.5237,0.7681 0.66336,0.96362l0.2444,0.37008l-0.0803,0.36659c-0.06983,0.34914 -0.15013,0.62845 -0.23392,0.85538c-0.03491,0.10474 -0.03491,0.10474 -0.6075,0.12569c-1.92025,0.08728 -3.98714,0.5656 -5.48144,1.26737c-0.20948,0.09776 -0.42595,0.21996 -0.47133,0.26534c-0.0968,0.0968 -0.09967,0.23385 -0.02256,0.33326c-0.0695,-0.10729 -0.03984,-0.25249 0.06096,-0.32977c0.35961,-0.27233 3.01305,-1.50827 6.51489,-1.52224c0.15711,-0.43642 0.27233,-0.88681 0.34215,-1.36862c-0.4853,-0.78905 -2.31478,-3.12477 -2.31478,-3.9208c0,-0.67732 1.28482,-0.15362 1.97262,0.32121c-0.15013,-0.5272 -0.33168,-1.07185 -0.57608,-1.6584v-0.05586c-0.02444,-0.02444 -0.04539,-0.02444 -0.06983,-0.05935c-0.48181,-0.88681 -0.99853,-2.25891 -0.79603,-2.58361c0.18504,-0.31073 0.82396,0.14664 1.44193,0.78905zM29.81738,16.47006c-0.74978,1.06968 -2.5714,2.41289 -2.70543,2.07768c0.0102,0.03956 0.02166,0.06087 0.03454,0.06602c0.14664,0.05586 0.66336,-0.23392 1.29181,-0.71573c0.35961,-0.27931 1.11724,-1.02995 1.27086,-1.24991l0.09776,-0.13965l0.25138,0.01746c0.16759,0.01397 0.30375,0 0.40849,-0.03491c0.01473,-0.00614 0.05234,-0.02738 0.10936,-0.06156c-0.23082,0.11854 -0.50877,0.11873 -0.75875,0.04061zM27.10458,18.48807c0.02444,-0.50625 -0.27931,-2.04245 0,-2.9502c-0.46784,-0.11172 -0.94965,-0.18853 -1.43844,-0.25138c-0.10125,0.92521 -1.4559,2.84546 -2.03197,3.38662c-0.61797,0.59004 -1.54318,-2.24844 -1.04741,-3.4355c-0.34914,0.03491 -0.6878,0.09427 -1.03694,0.15362c0.02568,0.04222 0.04528,0.09208 0.05935,0.14835v-0.14835l0.42944,-0.06284l0.47133,-0.06284c0.03491,0 0.02793,0.05237 -0.01047,0.18155c-0.0803,0.25836 -0.0803,1.01948 0,1.45939c0.15013,0.80301 0.41896,1.4559 0.70526,1.71775c0.09078,0.08728 0.2025,0.15711 0.2444,0.15711c0.22694,0 1.0125,-0.99155 1.64094,-2.05991c0.25836,-0.43293 0.46086,-0.88681 0.54116,-1.18706l0.05237,-0.20948l0.16759,0.01397c0.15711,0.01047 1.20103,0.19203 1.22198,0.20948l-0.05237,0.29677c-0.05935,0.33517 -0.06284,0.9287 -0.01397,1.50129c0.02095,0.22694 0.04888,0.59353 0.06284,0.82745c0.00945,0.15876 0.02095,0.27046 0.03504,0.34174c-0.00074,-0.00849 -0.00079,-0.01766 -0.00013,-0.02751zM20.35577,18.18432c-0.26185,-0.29677 -1.02995,-1.31974 -1.45939,-2.02499c-0.21305,0.09278 -0.43286,0.17203 -0.62615,0.27437c0.04811,-0.01834 0.09845,-0.03879 0.15132,-0.06139c0.23043,-0.09427 0.41896,-0.17457 0.42944,-0.17457c0,0 0.1606,0.21996 0.34215,0.48879c0.40151,0.59353 1.09978,1.51176 1.19405,1.57111c0.05253,0.03283 0.12095,0.02181 0.19841,-0.02502c-0.08641,0.03841 -0.1652,0.02727 -0.22983,-0.0483zM17.29385,16.40373l-5.56524,-3.439c-0.06983,1.62349 0,4.19313 0.82047,6.20067c0.52308,-0.53511 1.05393,-0.93302 1.30948,-0.83937c-0.04916,-0.02998 -0.10793,-0.04043 -0.1713,-0.02649c-0.2025,0.03491 -0.51672,0.2444 -0.84491,0.54814l-0.30375,0.27931l-0.07681,-0.2025c-0.35612,-0.96013 -0.59353,-2.13672 -0.69827,-3.52628c-0.0419,-0.51672 -0.05586,-2.37413 -0.02095,-2.37413c0.01397,0 0.47832,0.27931 1.03344,0.62845l3.56119,2.19956c0.53418,0.3247 1.02646,0.61797 1.09629,0.6459c0.1315,0.0526 0.26476,0.06998 0.42277,0.04949c-0.19566,0.00989 -0.39331,-0.0378 -0.56243,-0.14375zM13.18451,20.94599c-0.01397,0.03841 0,0.08379 -0.01397,0.11871c-0.2025,0.55513 -0.35612,1.07883 -0.48181,1.58857c0.58414,-0.36366 1.42192,-0.69679 1.70437,-0.462c-0.13393,-0.11732 -0.40402,-0.11751 -0.79662,0.00812c-0.17457,0.05586 -0.43293,0.16409 -0.58655,0.2444c-0.15362,0.08379 -0.27931,0.13267 -0.27931,0.10474c0,-0.18897 0.4305,-1.49659 0.66423,-2.01582c-0.06881,0.14437 -0.13966,0.28368 -0.21035,0.41328zM14.49028,22.43332c0,0.70526 -1.42797,2.61852 -2.1018,3.59611c0.06983,0.60401 0.19901,1.16262 0.38405,1.68633c1.87148,-0.00185 3.50782,0.34657 4.68777,0.71671c-0.32976,-0.10596 -0.66624,-0.2021 -0.97994,-0.27679c-1.16262,-0.27931 -2.45443,-0.45388 -3.38662,-0.45388h-0.31422l-0.10474,-0.30026c-0.10474,-0.34215 -0.2444,-0.99504 -0.25487,-1.22896c-0.01047,-0.13965 0.02793,-0.20948 0.37707,-0.71224c1.07534,-1.54318 1.50129,-2.26939 1.65491,-2.78611c0.02686,-0.09157 0.03952,-0.17246 0.0384,-0.24242c0,0.00051 0,0.00101 0,0.00152zM19.42009,29.58363c-0.04539,0.06284 -0.1222,0.09776 -0.19203,0.09776c-0.04539,0 -0.10125,-0.01397 -0.15013,-0.04888c-0.31422,-0.2409 -2.82801,-1.37211 -6.10989,-1.414c0.15362,0.35612 0.33517,0.69478 0.53767,1.01948c1.75616,-0.18155 3.52628,0.01047 5.30688,0.58655l0.19203,0.06284c0.13267,0.03491 0.2025,0.17108 0.16759,0.30026c-0.02729,0.09427 -0.10393,0.15681 -0.1911,0.17259c0.01295,-0.00081 0.02432,-0.00246 0.03399,-0.00501c0.20948,-0.05237 0.23043,-0.35961 0.03491,-0.46435c-0.1606,-0.0803 -1.13469,-0.34914 -1.66189,-0.46435c-1.05788,-0.21646 -2.27986,-0.31422 -3.26792,-0.25138c-0.45388,0.03491 -0.60051,0.02793 -0.63543,-0.01047c-0.04888,-0.05237 -0.47832,-0.8484 -0.47832,-0.8903c0,-0.04539 0.53418,-0.02793 1.16612,0.03491c1.67586,0.15711 3.4355,0.61448 4.61559,1.19754c0.36659,0.18155 0.4434,0.20948 0.53069,0.17457c0.13965,-0.05237 0.19552,-0.20948 0.12918,-0.34914c-0.00376,-0.00797 -0.00911,-0.01636 -0.01597,-0.02515c0.05291,0.08382 0.05267,0.19575 -0.01196,0.27652zM18.66246,30.29238c-1.61999,-0.5272 -3.233,-0.7262 -4.83903,-0.58655c0.17457,0.23043 0.34914,0.45388 0.54814,0.69129c1.86788,-0.33517 3.48787,0.02095 4.31184,0.19552l0.1606,0.03491c0.13267,0.02793 0.21646,0.1606 0.18853,0.28978c-0.01772,0.08419 -0.07763,0.1487 -0.15116,0.17747c0.04576,-0.00961 0.07293,-0.03064 0.10228,-0.06225c0.08379,-0.08728 0.0803,-0.27931 -0.00698,-0.3631c-0.07681,-0.06983 -0.97758,-0.26185 -1.71077,-0.35961c-0.58306,-0.0803 -1.8609,-0.09078 -2.39159,-0.02095l-0.43293,0.05586c-0.0419,0.00698 -0.1606,-0.10474 -0.31422,-0.30026l-0.26884,-0.30375l0.16759,-0.03491c0.25138,-0.03491 1.11724,-0.03491 1.67586,0.01047c0.91474,0.06983 1.85042,0.25836 2.91529,0.57957c0.09225,0.02611 0.17496,0.04528 0.24292,0.05577zM18.58216,31.07096c-0.81,-0.17806 -2.20654,-0.4853 -3.81257,-0.25836c1.04392,1.07534 2.34271,2.00055 3.71132,2.89783c1.9831,1.29181 3.96968,2.02499 5.44653,2.02499c1.60603,0 3.83003,-0.80651 5.55127,-2.01103c1.36862,-0.96362 2.61852,-1.90629 3.63102,-2.93275c-1.42271,-0.17226 -2.66764,0.05769 -3.46582,0.23183c0.09218,-0.01564 0.19196,-0.03372 0.29566,-0.05377c0.39802,-0.07681 0.89728,-0.15711 1.11025,-0.18155c0.43991,-0.04888 1.72124,-0.05586 1.88534,-0.00698l0.11172,0.03491l-0.28978,0.26884c-0.94267,0.90077 -2.98163,2.45443 -4.00809,3.06193c-1.19405,0.70526 -2.56965,1.23594 -3.78813,1.45939c-0.46435,0.08379 -1.36862,0.10474 -1.80154,0.03491v0.00698c-1.55017,-0.23741 -3.29236,-1.01948 -5.27196,-2.37413c-1.18008,-0.80301 -1.90978,-1.36163 -2.66042,-2.04594l-0.44689,-0.41198l0.20948,-0.02444c0.11522,-0.01047 0.53418,-0.02095 0.9287,-0.02444c0.80301,0 1.38956,0.05586 2.24146,0.23043c0.22917,0.04463 0.3875,0.07426 0.50033,0.08989zM28.98294,30.91734c-0.02444,-0.12918 0.05586,-0.25836 0.18504,-0.29327l0.1606,-0.03491c0.80301,-0.17457 2.36365,-0.52021 4.17916,-0.21996c0.19901,-0.21996 0.38405,-0.44689 0.55862,-0.67383c-0.75391,-0.05385 -1.51106,-0.03551 -2.2691,0.0558c0.61876,-0.06204 2.04862,-0.10133 2.13643,-0.0558c0.05586,0.03491 0.02444,0.08379 -0.19203,0.34215c-0.2444,0.29677 -0.25487,0.30026 -0.39802,0.27931c-0.73319,-0.11871 -1.76663,-0.11871 -2.65344,0c-0.46435,0.05586 -1.32672,0.21996 -1.5362,0.28978c-0.22913,0.06739 -0.25989,0.39494 -0.05775,0.47107c-0.05707,-0.03351 -0.10038,-0.09007 -0.11333,-0.16034zM28.83979,30.19462c-0.03491,-0.12569 0.03841,-0.26534 0.16759,-0.30026l0.18853,-0.06284c1.73521,-0.5656 3.47391,-0.76112 5.18468,-0.59353c0.20948,-0.32819 0.40151,-0.66336 0.55862,-1.0125c-3.1466,0.06456 -5.5623,1.11469 -5.98531,1.39609c0.05737,-0.02526 0.12256,-0.05684 0.19313,-0.09381c0.90776,-0.47483 2.52426,-0.94267 3.9627,-1.14517c0.5237,-0.07681 1.40353,-0.14664 1.6165,-0.13267l0.16759,0.01397l-0.1222,0.23043c-0.06284,0.12918 -0.18155,0.34215 -0.26185,0.47483l-0.13965,0.2444l-0.19552,-0.02793c-0.31422,-0.03491 -1.7003,-0.02444 -2.16465,0.02095c-1.12422,0.11871 -2.89783,0.53069 -3.12128,0.73319c-0.09427,0.07681 -0.08728,0.27931 0.00698,0.37008c0.02941,0.02626 0.0585,0.04303 0.10295,0.04834c-0.07496,-0.02456 -0.13711,-0.08327 -0.15881,-0.16355zM29.75453,30.18415c0.57715,-0.16681 1.21805,-0.3113 1.83437,-0.40606c-0.74045,0.10224 -1.48154,0.27414 -2.22111,0.51643c0.10163,-0.02735 0.22795,-0.06381 0.38674,-0.11037zM23.88205,28.73523c-0.87284,0 -1.18706,0.0419 -1.50129,0.19203c-0.25555,0.12777 -0.37958,0.314 -0.41755,0.65494c0.08464,-0.67248 0.54138,-0.84656 1.92446,-0.84697c-0.00187,0 -0.00374,0 -0.00562,0zM27.92156,30.05497c0.17457,-0.16409 0.06284,-0.45388 -0.18155,-0.45388c-0.2444,0 -0.34914,0.26884 -0.17457,0.44689c0.11871,0.11522 0.2444,0.11871 0.35612,0.01047zM19.98569,24.04284c-0.10524,-0.218 -0.17991,-0.33889 -0.31694,-0.49303c0.40342,0.5057 0.57649,1.09856 0.64761,1.57288c-0.04689,-0.39332 -0.14115,-0.69293 -0.33067,-1.07985zM19.37052,31.33878c-0.07033,-0.03745 -0.12105,-0.1075 -0.13506,-0.18786c0.01423,0.08633 0.0661,0.15251 0.13506,0.18786zM28.72729,29.69076c-0.00264,-0.00053 -0.00528,-0.0011 -0.0079,-0.00172c0.00231,0.00078 0.00495,0.00135 0.0079,0.00172zM23.68305,30.97669c-0.23741,-0.06284 -0.55862,-0.27931 -0.82745,-0.55862c-0.39103,-0.39802 -0.47133,-0.59353 -0.35612,-0.87284c0.0419,-0.09776 0.09776,-0.14664 0.2444,-0.2025c0.16409,-0.06284 0.30026,-0.06983 1.07534,-0.06983c1.18706,0 1.43146,0.06983 1.50129,0.44689c0.03491,0.18155 -0.10474,0.39103 -0.50974,0.77857c-0.4434,0.41896 -0.79254,0.57258 -1.12771,0.47832zM18.62057,24.46878c-0.48879,-0.18155 -0.53069,-0.87982 -0.05935,-1.0928c0.19901,-0.09078 0.30724,-0.09078 0.50974,0c0.42944,0.19552 0.43991,0.82745 0.01397,1.04741c-0.12918,0.06983 -0.34215,0.09427 -0.46435,0.04888zM31.21741,24.4199c-0.19552,-0.11522 -0.27931,-0.25487 -0.30026,-0.47832c-0.01746,-0.21996 0.06983,-0.39103 0.26534,-0.53767c0.26534,-0.19552 0.67732,-0.07681 0.83793,0.2444c0.26185,0.50625 -0.31422,1.05439 -0.80301,0.7681z"/><g stroke-width="1"><path fill="#000" d="M27.31058,31.89492c-0.01746,0.01746 -0.41896,0.43293 -1.18706,0.53069c-0.73319,0.08728 -1.6165,-0.27931 -1.74568,-0.99155c-0.00698,-0.01047 -0.01746,-0.01397 -0.02095,-0.02444c0.74366,-0.29677 1.47685,-1.18008 1.47685,-1.55017c0,-0.94267 -0.71224,-1.12422 -1.9412,-1.12422c-1.56064,0 -1.94469,0.21996 -1.94469,1.12422c0,0.43991 0.74715,1.25689 1.49081,1.5362c-0.00698,0.01397 -0.02095,0.02095 -0.02444,0.03491c-0.13965,0.73319 -1.0125,1.08232 -1.72823,0.99155c-0.7681,-0.10474 -1.16262,-0.51672 -1.17659,-0.53069c-0.18155,-0.2025 -0.48879,-0.21996 -0.69129,-0.03491c-0.19901,0.17457 -0.21646,0.48879 -0.03491,0.6878c0.02444,0.02793 0.63892,0.69827 1.7806,0.84491c0.11522,0.01397 0.23392,0.02095 0.35612,0.02095c0.74366,0 1.4943,-0.31422 1.97611,-0.87284c0.48879,0.55862 1.25689,0.87284 1.99706,0.87284c0.1222,0 0.23741,-0.00698 0.34914,-0.02095c1.14517,-0.14664 1.75965,-0.81698 1.78758,-0.84491c0.17457,-0.19901 0.16409,-0.50276 -0.03491,-0.68431c-0.19552,-0.18504 -0.50625,-0.17457 -0.6878,0.02444zM23.88904,31.03604c-0.63543,0 -1.44193,-0.94267 -1.45241,-1.16961c0,-0.47483 0,-0.63543 1.4559,-0.63543c1.45241,0 1.45241,0.29327 1.4559,0.62146c-0.04539,0.2444 -0.86237,1.18706 -1.45241,1.18706zM27.7435,30.1248c0.13965,0 0.25836,-0.1222 0.25836,-0.25836c0,-0.13965 -0.11172,-0.25836 -0.25487,-0.25836c-0.13965,0 -0.25487,0.11522 -0.25487,0.25836c0,0.13965 0.11871,0.25487 0.25487,0.25487z"/><path fill="#000" d="M27.10109,31.36423c0.13965,0 0.25487,-0.11871 0.25487,-0.25836c0,-0.13965 -0.11522,-0.25138 -0.25487,-0.25138c-0.13965,0 -0.25487,0.11522 -0.25487,0.25487c0,0.13965 0.11522,0.26185 0.25487,0.26185zM28.26023,31.10238c0,0.13965 0.11522,0.26185 0.25836,0.26185c0.13267,0 0.2444,-0.11871 0.2444,-0.25836c0,-0.13965 -0.11172,-0.25138 -0.2444,-0.25138c-0.14664,0 -0.26185,0.11522 -0.26185,0.25487zM20.13233,29.60807c-0.13965,0 -0.25487,0.11522 -0.25487,0.25836c0,0.13965 0.11522,0.25487 0.25487,0.25487c0.13965,0 0.25487,-0.1222 0.25487,-0.25836c0,-0.13965 -0.11522,-0.25836 -0.25487,-0.25836zM19.74129,31.10238c0,-0.13965 -0.11522,-0.25138 -0.25138,-0.25138c-0.13965,0 -0.25836,0.11522 -0.25836,0.25487c0,0.13965 0.11172,0.26185 0.25487,0.26185c0.13965,0 0.25138,-0.11871 0.25138,-0.25836zM20.90392,31.36423c0.13965,0 0.25487,-0.11871 0.25487,-0.25836c0,-0.13965 -0.11522,-0.25138 -0.25138,-0.25138c-0.13965,0 -0.25836,0.11522 -0.25836,0.25487c0,0.13965 0.11871,0.26185 0.25836,0.26185zM20.35228,25.98404c0.01047,-0.07681 0.1606,-1.88534 -1.13819,-2.88038c-0.48879,-0.37707 -1.08232,-0.56909 -1.7387,-0.56909c-0.80301,0 -1.43146,0.28629 -1.4559,0.29677c-0.08728,0.03491 -0.13965,0.1222 -0.14664,0.20948c0,0.07681 -0.03491,1.81551 1.18706,2.7093c0.55862,0.40849 1.22198,0.61448 1.96913,0.61448c0.66336,0 1.14168,-0.17457 1.16262,-0.17457c0.08728,-0.03491 0.15013,-0.11522 0.1606,-0.20948zM18.81608,24.51766c-0.34215,0 -0.61797,-0.27931 -0.61797,-0.61099c0,-0.34914 0.27931,-0.62146 0.61448,-0.62146c0.33866,0 0.61448,0.27931 0.61448,0.61797c0,0.33168 -0.27931,0.6075 -0.61797,0.6075zM32.21594,22.81737c-0.02444,-0.01047 -0.65289,-0.29327 -1.4559,-0.29327c-0.66336,0 -1.24293,0.18853 -1.73521,0.5656c-1.29879,0.99853 -1.15215,2.80357 -1.14168,2.87689c0.00698,0.09078 0.06983,0.17457 0.1606,0.20948c0.02095,0 0.50276,0.17457 1.16262,0.17457c0.74715,0 1.40702,-0.20948 1.96913,-0.61797c1.22198,-0.89379 1.18706,-2.629 1.18706,-2.70232c0,-0.09776 -0.05935,-0.17457 -0.14664,-0.21996zM31.50021,24.51766c-0.33866,0 -0.61797,-0.27931 -0.61797,-0.61099c0,-0.34914 0.27931,-0.62146 0.61797,-0.62146c0.34215,0 0.61448,0.27931 0.61448,0.61797c0,0.33168 -0.27931,0.6075 -0.61797,0.6075z"/><path fill="#000" d="M39.38023,28.3442c-0.75763,-0.23741 -1.50827,-0.39452 -2.23447,-0.48879c0.55164,-1.92025 0.50276,-4.21757 -0.59353,-7.03859c1.84344,-3.33425 1.04741,-9.39177 1.0125,-9.65712c-0.04539,-0.33168 -0.26185,-0.61797 -0.5656,-0.75763c-0.30724,-0.13965 -0.66336,-0.10474 -0.94267,0.07681l-6.01562,3.96968c-1.71077,-0.77508 -3.99761,-1.24293 -6.11687,-1.24293c-2.1437,0 -4.31882,0.45388 -6.0645,1.24642l-6.45903,-3.98365c-0.28629,-0.17457 -0.63892,-0.19901 -0.93569,-0.05237c-0.29677,0.13965 -0.50625,0.41896 -0.55164,0.75064c-0.03491,0.25138 -0.78556,5.9842 1.26737,9.67108c-0.96362,2.82801 -0.99853,5.12533 -0.45388,7.03859c-0.68431,0.09776 -1.38956,0.25138 -2.10878,0.47483c-0.13267,0.03491 -0.2025,0.17457 -0.16409,0.30375c0.0419,0.12918 0.18155,0.2025 0.30724,0.1606c0.71922,-0.22345 1.43146,-0.37008 2.11926,-0.46435c0.15711,0.45388 0.34914,0.87982 0.5656,1.28482c-0.78905,0.21996 -1.57111,0.5237 -2.34969,0.89379c-0.1222,0.05935 -0.17457,0.20948 -0.11172,0.32819c0.0419,0.08728 0.12918,0.13965 0.21996,0.13965c0.03491,0 0.06983,-0.01047 0.10474,-0.02793c0.78905,-0.38405 1.58508,-0.67732 2.3846,-0.8903c0.20948,0.33168 0.42595,0.64939 0.66336,0.95663c-0.69827,0.3247 -1.41051,0.77508 -2.09482,1.39655c-0.10474,0.08728 -0.11172,0.2444 -0.02095,0.34215c0.04888,0.05586 0.11522,0.0803 0.18155,0.0803c0.05935,0 0.11522,-0.01746 0.16409,-0.05935c0.6878,-0.62146 1.38607,-1.06487 2.07736,-1.37909c1.31275,1.55715 3.03051,2.80357 4.74127,3.91731c1.34767,0.87284 3.98714,2.34969 6.51838,2.34969c1.99706,0 4.61559,-0.9287 6.66851,-2.36715c1.47685,-1.04043 3.25744,-2.28684 4.63653,-3.94524c0.73319,0.31422 1.46637,0.7681 2.18909,1.41749c0.04888,0.0419 0.10474,0.06284 0.16409,0.06284c0.06983,0 0.13267,-0.02095 0.18155,-0.07681c0.09078,-0.10474 0.08379,-0.25487 -0.01746,-0.34914c-0.71922,-0.6459 -1.46637,-1.11724 -2.19956,-1.44543c0.23043,-0.29677 0.4434,-0.61099 0.63892,-0.93569c0.84491,0.21646 1.67586,0.5237 2.51378,0.92172c0.02793,0.01746 0.06983,0.02444 0.10474,0.02444c0.08728,0 0.17457,-0.04888 0.21646,-0.13965c0.05935,-0.11871 0.00698,-0.26534 -0.11172,-0.3247c-0.81698,-0.39452 -1.64094,-0.69827 -2.47189,-0.92521c0.21646,-0.405 0.40849,-0.82745 0.5656,-1.27435c0.73319,0.09427 1.48034,0.2444 2.24146,0.48181c0.12569,0.0419 0.26185,-0.03491 0.30375,-0.1606c0.03491,-0.12918 -0.03491,-0.26534 -0.1606,-0.30375zM35.1452,19.19682c-0.61797,-0.64241 -1.25689,-1.09978 -1.44193,-0.78905c-0.2025,0.3247 0.31422,1.6968 0.79603,2.58361c0.02444,0.03491 0.04539,0.03491 0.06983,0.05935v0.05586c0.2444,0.58655 0.42595,1.1312 0.57608,1.6584c-0.6878,-0.47483 -1.97262,-0.99853 -1.97262,-0.32121c0,0.79603 1.82948,3.13176 2.31478,3.9208c-0.06983,0.48181 -0.18504,0.93219 -0.34215,1.36862c-3.50184,0.01397 -6.15528,1.24991 -6.51489,1.52224c-0.10474,0.0803 -0.13267,0.23392 -0.05237,0.34215c0.04888,0.06284 0.1222,0.09776 0.19552,0.09776c0.05586,0 0.10474,-0.01746 0.15013,-0.05237c0.32121,-0.2444 2.78262,-1.35116 6.01562,-1.41749c-0.15711,0.34914 -0.34914,0.68431 -0.55862,1.0125c-1.71077,-0.16759 -3.44947,0.02793 -5.18468,0.59353l-0.18853,0.06284c-0.12918,0.03491 -0.2025,0.17457 -0.16759,0.30026c0.03491,0.12918 0.17457,0.2025 0.30375,0.16759l0.20948,-0.06284c1.57111,-0.51672 3.14921,-0.71573 4.71334,-0.60401c-0.17457,0.22694 -0.35961,0.45388 -0.55862,0.67383c-1.81551,-0.30026 -3.37615,0.04539 -4.17916,0.21996l-0.1606,0.03491c-0.12918,0.03491 -0.20948,0.16409 -0.18504,0.29327c0.02444,0.13267 0.15711,0.21646 0.28629,0.18853l0.1606,-0.03491c0.77857,-0.17457 2.12275,-0.46784 3.6799,-0.27931c-1.0125,1.02646 -2.26241,1.96913 -3.63102,2.93275c-1.72124,1.20452 -3.94524,2.01103 -5.55127,2.01103c-1.47685,0 -3.46343,-0.73319 -5.44653,-2.02499c-1.36862,-0.89728 -2.6674,-1.82249 -3.71132,-2.89783c1.60603,-0.22694 3.00257,0.0803 3.81257,0.25836l0.16409,0.03491c0.12569,0.02793 0.25836,-0.05586 0.28629,-0.18853c0.02793,-0.12918 -0.05586,-0.26185 -0.18853,-0.28978l-0.1606,-0.03491c-0.82396,-0.17457 -2.44396,-0.53069 -4.31184,-0.19552c-0.19901,-0.23741 -0.37358,-0.46086 -0.54814,-0.69129c1.60603,-0.13965 3.21904,0.05935 4.83903,0.58655l0.20948,0.06284c0.12569,0.03491 0.26185,-0.03491 0.30026,-0.16759c0.03491,-0.12918 -0.03491,-0.26534 -0.16759,-0.30026l-0.19203,-0.06284c-1.7806,-0.57608 -3.55072,-0.7681 -5.30688,-0.58655c-0.2025,-0.3247 -0.38405,-0.66336 -0.53767,-1.01948c3.28188,0.0419 5.79567,1.1731 6.10989,1.414c0.04888,0.03491 0.10474,0.04888 0.15013,0.04888c0.06983,0 0.14664,-0.03491 0.19203,-0.09776c0.08379,-0.10474 0.05935,-0.26185 -0.04888,-0.34215c-0.35961,-0.27931 -3.05844,-1.52922 -6.59868,-1.52573c-0.18504,-0.5237 -0.31422,-1.08232 -0.38405,-1.68633c0.67383,-0.97758 2.1018,-2.89085 2.1018,-3.59611c0,-0.62146 -1.08931,-0.22345 -1.80154,0.21996c0.12569,-0.50974 0.27931,-1.03344 0.48181,-1.58857c0.01397,-0.03491 0,-0.0803 0.01397,-0.11871c0.48181,-0.88332 0.9706,-2.21702 0.77508,-2.53473c-0.18504,-0.30375 -0.80301,0.13267 -1.41051,0.75414c-0.82047,-2.00754 -0.8903,-4.57718 -0.82047,-6.20067l5.56524,3.439c0.28978,0.18155 0.66336,0.19203 0.96711,0.03491c0.19552,-0.10474 0.41896,-0.18504 0.63543,-0.27931c0.42944,0.70526 1.19754,1.72823 1.45939,2.02499c0.45388,0.53069 1.60603,-2.11577 1.19405,-2.79309c0.34914,-0.05935 0.6878,-0.11871 1.03694,-0.15362c-0.49577,1.18706 0.42944,4.02554 1.04741,3.4355c0.57608,-0.54116 1.93073,-2.46141 2.03197,-3.38662c0.48879,0.06284 0.9706,0.13965 1.43844,0.25138c-0.27931,0.90776 0.02444,2.44396 0,2.9502c-0.03491,0.5237 1.92723,-0.89728 2.71279,-2.01801c0.27931,0.08728 0.59353,0.07681 0.83793,-0.08728l5.11834,-3.37615c0.10474,1.82948 0.04888,4.4096 -0.62845,6.1867z"/><path fill="#fff" d="M23.15934,35.64814c-1.55017,-0.23741 -3.29236,-1.01948 -5.27196,-2.37413c-1.18008,-0.80301 -1.90978,-1.36163 -2.66042,-2.04594l-0.44689,-0.41198l0.20948,-0.02444c0.11522,-0.01047 0.53418,-0.02095 0.9287,-0.02444c0.80301,0 1.38956,0.05586 2.24146,0.23043c0.66336,0.12918 0.73319,0.13267 0.82396,0.03491c0.08379,-0.08728 0.0803,-0.27931 -0.00698,-0.3631c-0.07681,-0.06983 -0.97758,-0.26185 -1.71077,-0.35961c-0.58306,-0.0803 -1.8609,-0.09078 -2.39159,-0.02095l-0.43293,0.05586c-0.0419,0.00698 -0.1606,-0.10474 -0.31422,-0.30026l-0.26884,-0.30375l0.16759,-0.03491c0.25138,-0.03491 1.11724,-0.03491 1.67586,0.01047c0.91474,0.06983 1.85042,0.25836 2.91529,0.57957c0.18504,0.05237 0.33168,0.07681 0.39802,0.05935c0.20948,-0.05237 0.23043,-0.35961 0.03491,-0.46435c-0.1606,-0.0803 -1.13469,-0.34914 -1.66189,-0.46435c-1.05788,-0.21646 -2.27986,-0.31422 -3.26792,-0.25138c-0.45388,0.03491 -0.60051,0.02793 -0.63543,-0.01047c-0.04888,-0.05237 -0.47832,-0.8484 -0.47832,-0.8903c0,-0.04539 0.53418,-0.02793 1.16612,0.03491c1.67586,0.15711 3.4355,0.61448 4.61559,1.19754c0.36659,0.18155 0.4434,0.20948 0.53069,0.17457c0.13965,-0.05237 0.19552,-0.20948 0.12918,-0.34914c-0.11522,-0.2444 -1.72124,-0.87982 -2.96766,-1.17659c-1.16262,-0.27931 -2.45443,-0.45388 -3.38662,-0.45388h-0.31422l-0.10474,-0.30026c-0.10474,-0.34215 -0.2444,-0.99504 -0.25487,-1.22896c-0.01047,-0.13965 0.02793,-0.20948 0.37707,-0.71224c1.07534,-1.54318 1.50129,-2.26939 1.65491,-2.78611c0.15362,-0.5237 -0.15711,-0.69827 -0.85538,-0.47483c-0.17457,0.05586 -0.43293,0.16409 -0.58655,0.2444c-0.15362,0.08379 -0.27931,0.13267 -0.27931,0.10474c0,-0.19552 0.46086,-1.58857 0.6878,-2.06689c0.33866,-0.7262 0.58306,-1.50129 0.58306,-1.84344c0,-0.23043 -0.13965,-0.37707 -0.31422,-0.33866c-0.2025,0.03491 -0.51672,0.2444 -0.84491,0.54814l-0.30375,0.27931l-0.07681,-0.2025c-0.35612,-0.96013 -0.59353,-2.13672 -0.69827,-3.52628c-0.0419,-0.51672 -0.05586,-2.37413 -0.02095,-2.37413c0.01397,0 0.47832,0.27931 1.03344,0.62845l3.56119,2.19956c0.53418,0.3247 1.02646,0.61797 1.09629,0.6459c0.26185,0.10474 0.53069,0.06983 0.98806,-0.12569c0.23043,-0.09427 0.41896,-0.17457 0.42944,-0.17457c0,0 0.1606,0.21996 0.34215,0.48879c0.40151,0.59353 1.09978,1.51176 1.19405,1.57111c0.19552,0.1222 0.61099,-0.3631 0.89379,-1.04043c0.2444,-0.56909 0.34914,-1.04741 0.32819,-1.46637v-0.35961l0.42944,-0.06284l0.47133,-0.06284c0.03491,0 0.02793,0.05237 -0.01047,0.18155c-0.0803,0.25836 -0.0803,1.01948 0,1.45939c0.15013,0.80301 0.41896,1.4559 0.70526,1.71775c0.09078,0.08728 0.2025,0.15711 0.2444,0.15711c0.22694,0 1.0125,-0.99155 1.64094,-2.05991c0.25836,-0.43293 0.46086,-0.88681 0.54116,-1.18706l0.05237,-0.20948l0.16759,0.01397c0.15711,0.01047 1.20103,0.19203 1.22198,0.20948l-0.05237,0.29677c-0.05935,0.33517 -0.06284,0.9287 -0.01397,1.50129c0.02095,0.22694 0.04888,0.59353 0.06284,0.82745c0.01746,0.29327 0.0419,0.42595 0.07681,0.43991c0.14664,0.05586 0.66336,-0.23392 1.29181,-0.71573c0.35961,-0.27931 1.11724,-1.02995 1.27086,-1.24991l0.09776,-0.13965l0.25138,0.01746c0.16759,0.01397 0.30375,0 0.40849,-0.03491c0.08379,-0.03491 0.90776,-0.55862 1.83297,-1.16961l2.5487,-1.68633l0.87284,-0.56909l0.03491,0.1222c0.05237,0.19901 0,2.82801 -0.06983,3.42154c-0.06983,0.62845 -0.19203,1.29879 -0.30026,1.72124c-0.07681,0.31422 -0.21996,0.76112 -0.2444,0.78905c-0.01047,0 -0.12569,-0.09078 -0.25836,-0.20948c-0.31422,-0.29327 -0.50625,-0.43293 -0.74715,-0.54814c-0.23741,-0.11172 -0.30724,-0.11522 -0.405,-0.01397c-0.22694,0.22345 0.05237,1.26737 0.67732,2.5068c0.13267,0.26534 0.29677,0.62845 0.35961,0.81349c0.1222,0.35612 0.31422,0.93219 0.31422,0.97758c0,0.01047 -0.19901,-0.07681 -0.43642,-0.19901c-0.46435,-0.23392 -0.83793,-0.34914 -1.1312,-0.34914c-0.13965,0 -0.19552,0.02095 -0.27233,0.09776c-0.09078,0.09427 -0.09776,0.12569 -0.0803,0.31422c0.03491,0.40151 0.49577,1.22896 1.39655,2.52775c0.22694,0.32819 0.5237,0.7681 0.66336,0.96362l0.2444,0.37008l-0.0803,0.36659c-0.06983,0.34914 -0.15013,0.62845 -0.23392,0.85538c-0.03491,0.10474 -0.03491,0.10474 -0.6075,0.12569c-1.92025,0.08728 -3.98714,0.5656 -5.48144,1.26737c-0.20948,0.09776 -0.42595,0.21996 -0.47133,0.26534c-0.13965,0.13965 -0.08379,0.3631 0.12569,0.43642c0.0419,0.01746 0.20948,-0.04539 0.42944,-0.1606c0.90776,-0.47483 2.52426,-0.94267 3.9627,-1.14517c0.5237,-0.07681 1.40353,-0.14664 1.6165,-0.13267l0.16759,0.01397l-0.1222,0.23043c-0.06284,0.12918 -0.18155,0.34215 -0.26185,0.47483l-0.13965,0.2444l-0.19552,-0.02793c-0.31422,-0.03491 -1.7003,-0.02444 -2.16465,0.02095c-1.12422,0.11871 -2.89783,0.53069 -3.12128,0.73319c-0.09427,0.07681 -0.08728,0.27931 0.00698,0.37008c0.09776,0.08728 0.19203,0.06983 0.85888,-0.12569c0.60401,-0.17457 1.27784,-0.3247 1.92025,-0.41896c0.5237,-0.06983 2.16465,-0.11871 2.25891,-0.06983c0.05586,0.03491 0.02444,0.08379 -0.19203,0.34215c-0.2444,0.29677 -0.25487,0.30026 -0.39802,0.27931c-0.73319,-0.11871 -1.76663,-0.11871 -2.65344,0c-0.46435,0.05586 -1.32672,0.21996 -1.5362,0.28978c-0.23741,0.06983 -0.26185,0.41896 -0.03491,0.47832c0.05237,0.01397 0.405,-0.03491 0.82047,-0.11522c0.39802,-0.07681 0.89728,-0.15711 1.11025,-0.18155c0.43991,-0.04888 1.72124,-0.05586 1.88534,-0.00698l0.11172,0.03491l-0.28978,0.26884c-0.94267,0.90077 -2.98163,2.45443 -4.00809,3.06193c-1.19405,0.70526 -2.56965,1.23594 -3.78813,1.45939c-0.46435,0.08379 -1.36862,0.10474 -1.80154,0.03491zM22.77529,33.29845c0.32121,-0.10474 0.80301,-0.39802 1.00202,-0.60401l0.11522,-0.11871l0.20948,0.18853c0.27233,0.2444 0.75064,0.48181 1.16612,0.58655c0.26884,0.06983 0.40151,0.07681 0.75414,0.05935c0.51323,-0.02095 0.77857,-0.08728 1.23943,-0.31422c0.39103,-0.18504 0.71922,-0.42944 0.83095,-0.61448c0.27931,-0.45388 -0.27233,-0.97758 -0.69827,-0.66336c-0.40849,0.29677 -0.55862,0.38405 -0.80301,0.46784c-0.34914,0.11871 -0.72271,0.15362 -1.02995,0.09776c-0.50974,-0.09776 -0.98806,-0.43642 -1.11025,-0.78905l-0.05586,-0.16759l0.17457,-0.09427c0.44689,-0.23392 0.98457,-0.7681 1.18706,-1.1731c0.22694,-0.4434 0.03491,-0.99853 -0.43293,-1.23245c-0.29677,-0.14664 -0.62146,-0.19203 -1.44193,-0.19203c-0.87284,0 -1.18706,0.0419 -1.50129,0.19203c-0.27931,0.13965 -0.40151,0.34914 -0.42595,0.75414c-0.01397,0.27233 -0.00698,0.3247 0.09078,0.5237c0.18504,0.37707 0.73319,0.8903 1.20452,1.12771c0.15711,0.0803 0.15711,0.08728 0.11522,0.20948c-0.11522,0.33866 -0.41896,0.62146 -0.83793,0.77508c-0.26534,0.09776 -0.8484,0.11172 -1.14168,0.03491c-0.27233,-0.0803 -0.61448,-0.25836 -0.78556,-0.40849c-0.18853,-0.17457 -0.27931,-0.20948 -0.44689,-0.20948c-0.37008,0 -0.60401,0.33517 -0.46784,0.67732c0.13965,0.34914 0.89379,0.80301 1.60603,0.96013c0.39802,0.08379 1.09978,0.05237 1.48732,-0.06983zM19.65401,31.31186c0.06983,-0.04539 0.08728,-0.10474 0.08728,-0.20948c0,-0.11172 -0.02095,-0.16759 -0.08379,-0.20948c-0.18853,-0.13965 -0.42595,-0.01746 -0.42595,0.20948c0,0.22345 0.23741,0.34215 0.42944,0.20948zM21.08547,31.28742c0.17457,-0.16409 0.06284,-0.45388 -0.17457,-0.45388c-0.12918,0 -0.27931,0.13965 -0.27931,0.26185c0,0.12569 0.13965,0.27931 0.26534,0.27931c0.05237,0 0.13965,-0.0419 0.18504,-0.08728zM27.26519,31.31186c0.06983,-0.04539 0.09078,-0.10474 0.09078,-0.20948c0,-0.11172 -0.02444,-0.16759 -0.08728,-0.20948c-0.18504,-0.13965 -0.42595,-0.01746 -0.42595,0.20948c0,0.22345 0.2444,0.34215 0.42944,0.20948zM28.69665,31.28742c0.17457,-0.16409 0.06284,-0.45388 -0.17457,-0.45388c-0.12918,0 -0.27931,0.13965 -0.27931,0.26185c0,0.12569 0.13965,0.27931 0.26534,0.27931c0.05237,0 0.13965,-0.0419 0.18853,-0.08728zM20.31039,30.05497c0.17457,-0.16409 0.06284,-0.45388 -0.18155,-0.45388c-0.2444,0 -0.34914,0.26884 -0.17457,0.44689c0.11522,0.11522 0.23741,0.11871 0.35612,0.01047zM27.92156,30.05497c0.17457,-0.16409 0.06284,-0.45388 -0.18155,-0.45388c-0.2444,0 -0.34914,0.26884 -0.17457,0.44689c0.11871,0.11522 0.2444,0.11871 0.35612,0.01047zM19.90888,26.28429c0.46086,-0.11522 0.46435,-0.11871 0.43991,-0.74017c-0.02793,-0.62845 -0.11172,-0.98806 -0.3631,-1.50129c-0.14664,-0.30375 -0.23392,-0.41896 -0.51323,-0.69827c-0.27931,-0.28978 -0.39452,-0.37008 -0.69827,-0.5237c-0.43642,-0.20948 -0.82047,-0.29327 -1.31275,-0.29327c-0.55862,0 -1.35465,0.18504 -1.52922,0.34914c-0.12569,0.1222 -0.0803,0.75414 0.09776,1.37211c0.34914,1.19405 1.23943,1.92025 2.60456,2.11926c0.23043,0.03491 0.9706,-0.01397 1.26737,-0.08728zM30.1735,26.2424c0.58655,-0.17457 1.15215,-0.53767 1.49081,-0.96013c0.37358,-0.47133 0.6459,-1.22198 0.69827,-1.9412c0.03491,-0.43991 0,-0.50276 -0.33866,-0.61448c-1.35465,-0.43293 -2.53473,-0.2025 -3.34473,0.66336c-0.5237,0.5656 -0.82047,1.414 -0.82047,2.33922c0,0.15711 0.01746,0.31422 0.03491,0.35961c0.0419,0.06983 0.30724,0.16759 0.65289,0.23043c0.09776,0.01746 0.43991,0.02444 0.76112,0.01746c0.44689,-0.01047 0.64241,-0.03491 0.86237,-0.09427z"/><path fill="#fff" d="M23.68305,30.97669c-0.23741,-0.06284 -0.55862,-0.27931 -0.82745,-0.55862c-0.39103,-0.39802 -0.47133,-0.59353 -0.35612,-0.87284c0.0419,-0.09776 0.09776,-0.14664 0.2444,-0.2025c0.16409,-0.06284 0.30026,-0.06983 1.07534,-0.06983c1.18706,0 1.43146,0.06983 1.50129,0.44689c0.03491,0.18155 -0.10474,0.39103 -0.50974,0.77857c-0.4434,0.41896 -0.79254,0.57258 -1.12771,0.47832zM18.62057,24.46878c-0.48879,-0.18155 -0.53069,-0.87982 -0.05935,-1.0928c0.19901,-0.09078 0.30724,-0.09078 0.50974,0c0.42944,0.19552 0.43991,0.82745 0.01397,1.04741c-0.12918,0.06983 -0.34215,0.09427 -0.46435,0.04888zM31.21741,24.4199c-0.19552,-0.11522 -0.27931,-0.25487 -0.30026,-0.47832c-0.01746,-0.21996 0.06983,-0.39103 0.26534,-0.53767c0.26534,-0.19552 0.67732,-0.07681 0.83793,0.2444c0.26185,0.50625 -0.31422,1.05439 -0.80301,0.7681z"/></g><path id="base 1 1 1" fill="none" stroke-width="1" d="M2,24c0,-12.15026 9.84974,-22 22,-22c12.15026,0 22,9.84974 22,22c0,12.15026 -9.84974,22 -22,22c-12.15026,0 -22,-9.84974 -22,-22z"/><rect width="44" height="22" x="2" y="2" fill="none" stroke-width="1"/><path fill="none" stroke-width="1" d="M2,24v-22h44v22z"/><path fill="none" stroke-width="1" d="M2,24v-22h44v22z"/><path fill="none" stroke-width="1" d="M2,24v-22h44v22z"/><path fill="none" stroke-width="1" d="M2,24v-22h44v22z"/></g></svg>